# AST/ASF file generated using VICON BodyLanguage
# -----------------------------------------------
:version 1.10
:name VICON
:units
  mass 1.0
  length 0.45
  angle deg
:documentation
   .ast/.asf automatically generated from VICON data using
   VICON BodyBuilder and BodyLanguage model FoxedUp or BRILLIANT.MOD
:root
   order TX TY TZ RX RY RZ
   axis XYZ
   position 0 0 0  
   orientation 0 0 0 
:bonedata
  begin
     id 1 
     name lhipjoint
     direction 0.671379 -0.66392 0.329334 
     length 2.38647 
     axis 0 0 0  XYZ
  end
  begin
     id 2 
     name lfemur
     direction 0.34202 -0.939693 0  
     length 6.48179  
     axis 0 0 20  XYZ
    dof rx ry rz
    limits (-160.0 20.0)
           (-70.0 70.0)
           (-60.0 70.0)
  end
  begin
     id 3 
     name ltibia
     direction 0.34202 -0.939693 0   
     length 6.86524   
     axis 0 0 20   XYZ
    dof rx
    limits (-10.0 170.0)
  end
  begin
     id 4 
     name lfoot
     direction 0.204886 -0.562919 0.800715   
     length 1.73031   
     axis -90 7.62852e-016 20   XYZ
    dof rx rz
    limits (-45.0 90.0)
           (-70.0 20.0)
  end
  begin
     id 5 
     name ltoes
     direction 1.53548e-011 -4.21841e-011 1   
     length 0.828161   
     axis -90 7.62852e-016 20   XYZ
    dof rx
    limits (-90.0 20.0)
  end
  begin
     id 6 
     name rhipjoint
     direction -0.662732 -0.670855 0.332775   
     length 2.3618  
     axis 0 0 0  XYZ 
  end
  begin
     id 7 
     name rfemur
     direction -0.34202 -0.939693 0   
     length 6.3025   
     axis 0 0 -20   XYZ
    dof rx ry rz
    limits (-160.0 20.0)
           (-70.0 70.0)
           (-70.0 60.0)
  end
  begin
     id 8 
     name rtibia
     direction -0.34202 -0.939693 0   
     length 6.8732   
     axis 0 0 -20   XYZ
    dof rx
    limits (-10.0 170.0)
 end
 begin
     id 9 
     name rfoot
     direction -0.173856 -0.477665 0.861168   
     length 1.54784  
     axis -90 -7.62852e-016 -20   XYZ
    dof rx rz
    limits (-45.0 90.0)
           (-20.0 70.0)
  end
  begin
     id 10 
     name rtoes
     direction -1.53562e-011 -4.21802e-011 1   
     length 0.759618   
     axis -90 -7.62852e-016 -20   XYZ
    dof rx
    limits (-90.0 20.0)
  end
  begin
     id 11 
     name lowerback
     direction -0.0278357 0.999497 -0.0151789   
     length 1.97203   
     axis 0 0 0   XYZ
    dof rx ry rz
    limits (-20.0 45.0)
           (-30.0 30.0)
           (-30.0 30.0)
  end
  begin
     id 12 
     name upperback
     direction -0.00360622 0.997542 0.0699804   
     length 1.94709   
     axis 0 0 0   XYZ
    dof rx ry rz
    limits (-20.0 45.0)
           (-30.0 30.0)
           (-30.0 30.0)
  end
  begin
     id 13 
     name thorax
     direction 0.00907706 0.997048 0.0762461   
     length 1.95722   
     axis 0 0 0   XYZ
    dof rx ry rz
    limits (-20.0 45.0)
           (-30.0 30.0)
           (-30.0 30.0)
  end
  begin
     id 14 
     name lowerneck
     direction -0.0481835 0.99872 -0.0153927   
     length 1.63078   
     axis 0 0 0   XYZ
    dof rx ry rz
    limits (-20.0 45.0)
           (-30.0 30.0)
           (-30.0 30.0)
  end
  begin
     id 15 
     name upperneck
     direction 0.0859716 0.979226 -0.183644   
     length 1.62591   
     axis 0 0 0   XYZ
    dof rx ry rz
    limits (-20.0 45.0)
           (-30.0 30.0)
           (-30.0 30.0)
  end
  begin
     id 16
     name head
     direction 0.0324821 0.997629 -0.0606773  
     length 1.64811  
     axis 0 0 0   XYZ
    dof rx ry rz
    limits (-20.0 45.0)
           (-30.0 30.0)
           (-30.0 30.0)
  end
  begin
     id 17 
     name lclavicle
     direction 0.939609 0.311019 0.142835  
     length 3.70647  
     axis 0 0 0   XYZ
    dof ry rz
    limits (-20.0 10.0)
           (0.0 20.0)
  end
  begin
     id 18 
     name lhumerus
     direction 1 -4.48963e-011 -1.59838e-027   
     length 4.59207   
     axis 180 -30 -90   XYZ
    dof rx ry rz
    limits (-60.0 90.0)
           (-90.0 90.0)
           (-90.0 90.0)
  end
  begin
     id 19
     name lradius
     direction 1 -4.48957e-011 -1.3483e-026   
     length 2.98109   
     axis 180 -30 -90   XYZ
    dof rx
    limits (-10.0 170.0)
  end
  begin
     id 20
     name lwrist
     direction 1 -4.48954e-011 -3.11579e-026   
     length 1.49055   
     axis 2.00652e-014 90 90   XYZ
    dof ry
    limits (-180.0 0.0)
 end
  begin
     id 21 
     name lhand
     direction 1 -4.4911e-011 -6.23158e-026   
     length 0.480203   
     axis 3.97628e-014 90 90   XYZ
    dof rx rz
    limits (-90.0 90.0)
           (-45.0 45.0)
  end
  begin
     id 22 
     name lfingers
     direction 1 -4.48893e-011 -1.24632e-025   
     length 0.387152   
     axis 7.95256e-014 90 90   XYZ
    dof rx
    limits (0.0 90.0)
  end
  begin
     id 23
     name lthumb
     direction 0.707107 -6.35013e-011 0.707107   
     length 0.555875   
     axis -90 45 2.85299e-015   XYZ
    dof rx rz
    limits (-45.0 45.0)
           (-45.0 45.0)
  end
  begin
     id 24 
     name rclavicle
     direction -0.950396 0.30392 0.0661859   
     length 3.70894  
     axis 0 0 0   XYZ 
    dof ry rz
    limits (-10.0 20.0)
           (-20.0 0.0)
  end
  begin
     id 25 
     name rhumerus
     direction -1 -4.48957e-011 -2.96677e-027  
     length 4.76508   
     axis 180 30 90   XYZ
    dof rx ry rz
    limits (-90.0 60.0)
           (-90.0 90.0)
           (-90.0 90.0)
  end
  begin
     id 26 
     name rradius
     direction -1 -4.48974e-011 -1.44501e-026   
     length 2.78902   
     axis 180 30 90   XYZ
    dof rx
    limits (-10.0 170.0)
  end
  begin
     id 27 
     name rwrist
     direction -1 -4.48978e-011 -3.11579e-026   
     length 1.39451   
     axis 2.00652e-014 -90 -90   XYZ
    dof ry
    limits (-180.0 0.0)
  end
  begin
     id 28
     name rhand
     direction -1 -4.48956e-011 -6.23158e-026   
     length 0.721303   
     axis 3.97628e-014 -90 -90   XYZ
    dof rx rz
    limits (-90.0 90.0)
           (-45.0 45.0)
  end
  begin
     id 29
     name rfingers
     direction -1 -4.4899e-011 -1.24632e-025   
     length 0.581533   
     axis 7.95256e-014 -90 -90   XYZ
    dof rx
    limits (0.0 90.0)
  end
  begin
     id 30
     name rthumb
     direction -0.707107 -6.34911e-011 0.707107   
     length 0.834968   
     axis -90 -45 -2.85299e-015   XYZ
    dof rx rz
    limits (-45.0 45.0)
           (-45.0 45.0)
  end
:hierarchy
  begin
    root lhipjoint rhipjoint lowerback
    lhipjoint lfemur
    lfemur ltibia
    ltibia lfoot
    lfoot ltoes
    rhipjoint rfemur
    rfemur rtibia
    rtibia rfoot
    rfoot rtoes
    lowerback upperback
    upperback thorax
    thorax lowerneck lclavicle rclavicle
    lowerneck upperneck
    upperneck head
    lclavicle lhumerus
    lhumerus lradius
    lradius lwrist
    lwrist lhand lthumb
    lhand lfingers
    rclavicle rhumerus
    rhumerus rradius
    rradius rwrist
    rwrist rhand rthumb
    rhand rfingers
  end

#!OML:ASF I:\salsa\salsa 7_09\Patient 1\Session 1\dancerfemale.ASF
:FULLY-SPECIFIED
:DEGREES
994
root -12.0781 16.5558 3.35657 190.939 -17.0685 -184.051
lowerback 4.69479 4.86136 16.1088
upperback -16.2577 6.57951 -4.93113
thorax -18.4747 -0.838339 -15.9552
lowerneck 13.1409 -13.926 -5.93512
upperneck 10.6466 -20.3306 -5.50397
head 1.28971 -10.8992 -0.293673
rclavicle 3.95581e-014 -4.05521e-014
rhumerus -41.0273 23.1509 -122.292
rradius 103.521
rwrist -18.3821
rhand 6.90094 50.1018
rfingers 7.12502
rthumb 32.1814 22.9324
lclavicle 3.95581e-014 -4.05521e-014
lhumerus 76.178 -0.629898 26.9389
lradius 97.1205
lwrist 31.1036
lhand 19.1966 31.9996
lfingers 7.12502
lthumb 43.786 -664.038
rfemur -14.0981 -16.8364 28.0561
rtibia 30.5358
rfoot -30.6996 -41.1855
rtoes -5.8974
lfemur -37.8077 15.8961 -24.4277
ltibia 49.1697
lfoot -0.345319 21.3368
ltoes -3.64343
995
root -12.3002 16.5811 3.32141 190.406 -24.7828 -183.982
lowerback 4.67384 5.89004 17.7993
upperback -16.4415 8.30581 -6.07967
thorax -17.5905 -0.225769 -18.5299
lowerneck 13.1341 -14.2697 -4.98561
upperneck 10.3165 -20.5091 -4.70619
head 1.18203 -10.8758 -0.164504
rclavicle 7.10655e-015 1.19271e-014
rhumerus -39.2064 22.845 -122.298
rradius 102.814
rwrist -17.8302
rhand 6.002 50.6932
rfingers 7.12502
rthumb 31.3252 23.3543
lclavicle 7.10655e-015 1.19271e-014
lhumerus 76.5741 -0.711121 26.7335
lradius 98.5384
lwrist 32.2155
lhand 19.7656 33.1483
lfingers 7.12502
lthumb 44.3167 -663.088
rfemur -11.848 -17.6261 27.6101
rtibia 29.7213
rfoot -27.765 -41.372
rtoes -9.07681
lfemur -37.5112 16.0587 -25.7928
ltibia 49.3143
lfoot -1.02322 21.0836
ltoes -18.4241
996
root -12.5332 16.5987 3.28179 190.145 -32.1652 -184.1
lowerback 4.34565 6.81626 18.2958
upperback -16.5887 9.68992 -6.58346
thorax -16.7422 0.514945 -19.4462
lowerneck 12.4243 -14.3691 -4.10395
upperneck 10.0971 -20.3186 -4.81679
head 1.11716 -10.6912 -0.345893
rclavicle 9.64106e-015 -1.19271e-014
rhumerus -38.1006 22.7575 -121.936
rradius 102.791
rwrist -18.2401
rhand 6.55518 50.299
rfingers 7.12502
rthumb 31.8522 23.0635
lclavicle 9.64106e-015 -1.19271e-014
lhumerus 76.633 -0.0852231 27.5197
lradius 98.7288
lwrist 33.0515
lhand 20.5777 33.7188
lfingers 7.12502
lthumb 45.0729 -662.81
rfemur -9.57672 -18.5061 26.8883
rtibia 28.9064
rfoot -24.2437 -40.5753
rtoes -8.67229
lfemur -37.1949 16.7246 -27.5545
ltibia 48.9641
lfoot 0.380952 16.6619
ltoes -20.3818
997
root -12.7646 16.6176 3.23176 190.38 -39.3342 -184.625
lowerback 3.3936 7.84376 18.1447
upperback -16.61 10.9456 -7.12168
thorax -15.4436 1.40294 -19.7955
lowerneck 12.2294 -14.4742 -2.57361
upperneck 8.96993 -20.0966 -5.13336
head 0.608112 -10.4359 -0.561532
rclavicle 1.08338e-013 3.33958e-014
rhumerus -36.6945 22.6148 -121.47
rradius 102.604
rwrist -19.0682
rhand 7.5231 50.1943
rfingers 7.12502
rthumb 32.7735 23.1466
lclavicle 1.08338e-013 3.33958e-014
lhumerus 75.9918 0.938991 28.6305
lradius 100.097
lwrist 33.696
lhand 21.2515 35.4913
lfingers 7.12502
lthumb 45.6991 -661.29
rfemur -7.733 -18.8696 26.0345
rtibia 28.6145
rfoot -19.8307 -39.3638
rtoes -9.86996
lfemur -36.8875 17.5616 -29.499
ltibia 48.4831
lfoot 1.28784 13.2143
ltoes -23.8645
998
root -12.9958 16.6368 3.1942 191.019 -46.3439 -185.033
lowerback 1.93663 8.98056 18.0229
upperback -16.4086 12.2475 -7.64608
thorax -13.5428 2.465 -19.874
lowerneck 10.0017 -14.2873 -2.02124
upperneck 9.44295 -19.6017 -4.71016
head 1.08512 -10.1519 -0.730895
rclavicle -1.47101e-014 7.71285e-014
rhumerus -34.7279 22.6828 -120.538
rradius 102.439
rwrist -19.8697
rhand 7.82849 48.7133
rfingers 7.12502
rthumb 33.0639 21.7266
lclavicle -1.47101e-014 7.71285e-014
lhumerus 75.9333 1.99492 30.29
lradius 100.662
lwrist 33.7497
lhand 21.2769 35.584
lfingers 7.12502
lthumb 45.7227 -661.207
rfemur -6.8628 -17.6195 25.8792
rtibia 29.1337
rfoot -14.6641 -38.3539
rtoes -8.4808
lfemur -36.7173 18.4836 -31.1221
ltibia 47.7894
lfoot 2.09898 8.83019
ltoes -25.3869
999
root -13.2088 16.5956 3.16946 191.266 -53.4167 -184.47
lowerback 0.487138 10.2079 17.9164
upperback -16.5744 13.6745 -7.86476
thorax -12.1461 3.47448 -19.5377
lowerneck 8.43065 -14.0426 -1.84562
upperneck 9.85312 -19.1498 -4.28255
head 1.48986 -9.90138 -0.794358
rclavicle -6.99722e-014 -2.38542e-014
rhumerus -33.7239 21.7305 -119.376
rradius 102.421
rwrist -19.5655
rhand 8.4963 48.4547
rfingers 7.12502
rthumb 33.6988 21.6046
lclavicle -6.99722e-014 -2.38542e-014
lhumerus 75.3413 2.61305 33.1169
lradius 101.937
lwrist 33.384
lhand 22.7487 36.6475
lfingers 7.12502
lthumb 47.0866 -660.724
rfemur -6.99271 -16.049 26.8378
rtibia 30.6904
rfoot -10.7253 -35.6044
rtoes -5.43479
lfemur -36.9442 19.3254 -31.728
ltibia 47.3466
lfoot 3.10433 2.90472
ltoes -27.2255
1000
root -13.4021 16.5809 3.13415 193.668 -60.9188 -187.155
lowerback -1.29188 11.1777 15.8249
upperback -15.8664 14.5355 -8.2659
thorax -10.2217 4.58729 -18.1604
lowerneck 6.77302 -13.9005 -2.09295
upperneck 9.90705 -18.879 -3.54416
head 1.87366 -9.7299 -0.700293
rclavicle -1.19271e-015 -2.38542e-014
rhumerus -32.1107 20.0415 -117.308
rradius 102.155
rwrist -18.4902
rhand 8.8379 49.2421
rfingers 7.12502
rthumb 34.0233 22.4635
lclavicle -1.19271e-015 -2.38542e-014
lhumerus 75.3833 3.48902 36.9637
lradius 103.637
lwrist 32.9554
lhand 24.9005 40.8714
lfingers 7.12502
lthumb 49.0698 -657.431
rfemur -6.8886 -16.8708 25.7067
rtibia 32.7614
rfoot -6.02214 -29.5722
rtoes -3.46428
lfemur -35.6446 16.7418 -32.6815
ltibia 46.8756
lfoot 3.72531 -1.03927
ltoes -25.7454
1001
root -13.5641 16.5516 3.11098 197.139 -68.3829 -190.811
lowerback -2.97574 12.0027 13.9513
upperback -14.535 15.3633 -8.16092
thorax -8.54313 5.57786 -16.6551
lowerneck 6.00555 -13.7647 -3.47465
upperneck 9.20696 -18.753 -1.97853
head 2.06852 -9.63387 -0.113422
rclavicle 2.18663e-014 -1.19271e-014
rhumerus -30.5517 19.3786 -114.279
rradius 102.063
rwrist -17.7755
rhand 8.34354 50.3468
rfingers 7.12502
rthumb 33.5536 23.465
lclavicle 2.18663e-014 -1.19271e-014
lhumerus 75.255 4.04263 41.6903
lradius 105.342
lwrist 32.2159
lhand 27.447 41.4941
lfingers 7.12502
lthumb 51.3978 -658.049
rfemur -7.39529 -17.5938 25.023
rtibia 35.4835
rfoot -1.30189 -21.5311
rtoes -3.08565
lfemur -34.5117 13.2963 -32.8765
ltibia 46.7184
lfoot 5.04073 -3.3469
ltoes -20.1429
1002
root -13.7095 16.5102 3.06316 197.346 -76.4098 -191.858
lowerback -2.5228 11.9276 13.9211
upperback -13.7689 15.5056 -7.41778
thorax -8.06597 5.87274 -15.7511
lowerneck 4.65624 -12.7191 -5.16448
upperneck 9.2998 -17.4008 -0.428935
head 2.63049 -8.95379 0.469995
rclavicle -6.2816e-014 -3.65764e-014
rhumerus -30.3164 19.0045 -112.747
rradius 102.192
rwrist -17.7974
rhand 7.79923 49.6157
rfingers 7.12502
rthumb 33.0361 22.6231
lclavicle -6.2816e-014 -3.65764e-014
lhumerus 74.0277 5.1667 45.5353
lradius 107.533
lwrist 30.8431
lhand 28.853 43.9615
lfingers 7.12502
lthumb 52.6728 -656.341
rfemur -7.01223 -18.437 26.0018
rtibia 38.0494
rfoot 0.736168 -13.4671
rtoes -9.35256
lfemur -32.7114 9.82413 -30.9117
ltibia 46.8183
lfoot 6.00756 -5.94421
ltoes -19.1257
1003
root -13.8409 16.4541 2.99987 215.899 -83.9001 -211.338
lowerback -1.78258 11.6102 12.1838
upperback -13.189 15.2185 -6.95198
thorax -8.40603 5.94535 -14.462
lowerneck 2.9265 -10.899 -5.5637
upperneck 9.81175 -14.8438 -0.144027
head 3.09459 -7.66743 0.548382
rclavicle -1.12512e-013 -3.10104e-014
rhumerus -31.1575 18.3434 -111.496
rradius 102.474
rwrist -17.9048
rhand 7.59424 49.504
rfingers 7.12502
rthumb 32.8411 22.4704
lclavicle -1.12512e-013 -3.10104e-014
lhumerus 72.1176 6.06119 49.1488
lradius 109.705
lwrist 28.9493
lhand 27.3834 43.7207
lfingers 7.12502
lthumb 51.3398 -655.79
rfemur -6.95049 -19.2767 25.3318
rtibia 40.5904
rfoot -0.120287 -9.72231
rtoes -14.0903
lfemur -31.4545 8.91591 -31.2858
ltibia 47.1081
lfoot 7.38083 -10.4199
ltoes -21.4711
